<svg width="14" height="18" viewBox="0 0 14 18" fill="none" xmlns="http://www.w3.org/2000/svg">
<path d="M7.00016 8.99935C7.4585 8.99935 7.85086 8.83615 8.17725 8.50977C8.50363 8.18338 8.66683 7.79102 8.66683 7.33268C8.66683 6.87435 8.50363 6.48199 8.17725 6.1556C7.85086 5.82921 7.4585 5.66602 7.00016 5.66602C6.54183 5.66602 6.14947 5.82921 5.82308 6.1556C5.49669 6.48199 5.3335 6.87435 5.3335 7.33268C5.3335 7.79102 5.49669 8.18338 5.82308 8.50977C6.14947 8.83615 6.54183 8.99935 7.00016 8.99935ZM7.00016 15.1243C8.69461 13.5688 9.95155 12.1556 10.771 10.8848C11.5904 9.61393 12.0002 8.48546 12.0002 7.49935C12.0002 5.98546 11.5175 4.74588 10.5522 3.7806C9.58697 2.81532 8.40294 2.33268 7.00016 2.33268C5.59738 2.33268 4.41336 2.81532 3.44808 3.7806C2.4828 4.74588 2.00016 5.98546 2.00016 7.49935C2.00016 8.48546 2.40988 9.61393 3.22933 10.8848C4.04877 12.1556 5.30572 13.5688 7.00016 15.1243ZM7.00016 17.3327C4.76405 15.4299 3.09391 13.6625 1.98975 12.0306C0.885579 10.3987 0.333496 8.88824 0.333496 7.49935C0.333496 5.41602 1.00363 3.75629 2.34391 2.52018C3.68419 1.28407 5.23627 0.666016 7.00016 0.666016C8.76405 0.666016 10.3161 1.28407 11.6564 2.52018C12.9967 3.75629 13.6668 5.41602 13.6668 7.49935C13.6668 8.88824 13.1147 10.3987 12.0106 12.0306C10.9064 13.6625 9.23627 15.4299 7.00016 17.3327Z" fill="black" fill-opacity="0.7"/>
</svg>
